<svg xmlns="http://www.w3.org/2000/svg" viewBox="0 0 720 430" width="720" height="430" role="img" aria-label="Share of rows read, clustered on (date, item, customer)" font-family="Inter, system-ui, -apple-system, 'Segoe UI', sans-serif">
<title>Share of rows read, clustered on (date, item, customer)</title>
<rect y="0" width="720" height="430" rx="8" fill="#1a1a19"/>
<rect x="150" y="14" width="12" height="12" rx="3" fill="#3987e5"/>
<text x="168.0" y="24.0" font-size="13" fill="#c3c2b7" text-anchor="start" font-weight="400">ss_sold_date_sk</text>
<rect x="284.0" y="14" width="12" height="12" rx="3" fill="#d95926"/>
<text x="302.0" y="24.0" font-size="13" fill="#c3c2b7" text-anchor="start" font-weight="400">ss_item_sk</text>
<rect x="382.0" y="14" width="12" height="12" rx="3" fill="#199e70"/>
<text x="400.0" y="24.0" font-size="13" fill="#c3c2b7" text-anchor="start" font-weight="400">ss_customer_sk</text>
<line x1="150.0" y1="30" x2="150.0" y2="386" stroke="#383835" stroke-width="1"/>
<text x="150.0" y="402.0" font-size="11" fill="#8a897f" text-anchor="middle" font-weight="400">0%</text>
<line x1="275.0" y1="30" x2="275.0" y2="386" stroke="#383835" stroke-width="1"/>
<text x="275.0" y="402.0" font-size="11" fill="#8a897f" text-anchor="middle" font-weight="400">25%</text>
<line x1="400.0" y1="30" x2="400.0" y2="386" stroke="#383835" stroke-width="1"/>
<text x="400.0" y="402.0" font-size="11" fill="#8a897f" text-anchor="middle" font-weight="400">50%</text>
<line x1="525.0" y1="30" x2="525.0" y2="386" stroke="#383835" stroke-width="1"/>
<text x="525.0" y="402.0" font-size="11" fill="#8a897f" text-anchor="middle" font-weight="400">75%</text>
<line x1="650.0" y1="30" x2="650.0" y2="386" stroke="#383835" stroke-width="1"/>
<text x="650.0" y="402.0" font-size="11" fill="#8a897f" text-anchor="middle" font-weight="400">100%</text>
<text x="138.0" y="63.5" font-size="13" fill="#c3c2b7" text-anchor="end" font-weight="400">Random</text>
<path d="M150.0,36.0 h496.0 a4,4 0 0 1 4,4 v6.0 a4,4 0 0 1 -4,4 h-496.0 z" fill="#3987e5"/>
<text x="656.0" y="47.0" font-size="12" fill="#c3c2b7" text-anchor="start" font-weight="400">100%</text>
<path d="M150.0,52.0 h496.0 a4,4 0 0 1 4,4 v6.0 a4,4 0 0 1 -4,4 h-496.0 z" fill="#d95926"/>
<text x="656.0" y="63.0" font-size="12" fill="#c3c2b7" text-anchor="start" font-weight="400">100%</text>
<path d="M150.0,68.0 h496.0 a4,4 0 0 1 4,4 v6.0 a4,4 0 0 1 -4,4 h-496.0 z" fill="#199e70"/>
<text x="656.0" y="79.0" font-size="12" fill="#c3c2b7" text-anchor="start" font-weight="400">100%</text>
<text x="138.0" y="123.5" font-size="13" fill="#c3c2b7" text-anchor="end" font-weight="400">Sorted (lexicographic)</text>
<path d="M150.0,96.0 h2.6 a2.560026453606688,2.560026453606688 0 0 1 2.560026453606688,2.560026453606688 v8.9 a2.560026453606688,2.560026453606688 0 0 1 -2.560026453606688,2.560026453606688 h-2.6 z" fill="#3987e5"/>
<text x="161.1" y="107.0" font-size="12" fill="#c3c2b7" text-anchor="start" font-weight="400">1.0%</text>
<path d="M150.0,112.0 h392.0 a4,4 0 0 1 4,4 v6.0 a4,4 0 0 1 -4,4 h-392.0 z" fill="#d95926"/>
<text x="552.0" y="123.0" font-size="12" fill="#c3c2b7" text-anchor="start" font-weight="400">79%</text>
<path d="M150.0,128.0 h496.0 a4,4 0 0 1 4,4 v6.0 a4,4 0 0 1 -4,4 h-496.0 z" fill="#199e70"/>
<text x="656.0" y="139.0" font-size="12" fill="#c3c2b7" text-anchor="start" font-weight="400">100%</text>
<text x="138.0" y="183.5" font-size="13" fill="#c3c2b7" text-anchor="end" font-weight="400">Morton</text>
<path d="M150.0,156.0 h38.1 a4,4 0 0 1 4,4 v6.0 a4,4 0 0 1 -4,4 h-38.1 z" fill="#3987e5"/>
<text x="198.1" y="167.0" font-size="12" fill="#c3c2b7" text-anchor="start" font-weight="400">8.4%</text>
<path d="M150.0,172.0 h54.2 a4,4 0 0 1 4,4 v6.0 a4,4 0 0 1 -4,4 h-54.2 z" fill="#d95926"/>
<text x="214.2" y="183.0" font-size="12" fill="#c3c2b7" text-anchor="start" font-weight="400">12%</text>
<path d="M150.0,188.0 h78.3 a4,4 0 0 1 4,4 v6.0 a4,4 0 0 1 -4,4 h-78.3 z" fill="#199e70"/>
<text x="238.3" y="199.0" font-size="12" fill="#c3c2b7" text-anchor="start" font-weight="400">16%</text>
<text x="138.0" y="243.5" font-size="13" fill="#c3c2b7" text-anchor="end" font-weight="400">Hilbert</text>
<path d="M150.0,216.0 h38.8 a4,4 0 0 1 4,4 v6.0 a4,4 0 0 1 -4,4 h-38.8 z" fill="#3987e5"/>
<text x="198.8" y="227.0" font-size="12" fill="#c3c2b7" text-anchor="start" font-weight="400">8.6%</text>
<path d="M150.0,232.0 h42.7 a4,4 0 0 1 4,4 v6.0 a4,4 0 0 1 -4,4 h-42.7 z" fill="#d95926"/>
<text x="202.7" y="243.0" font-size="12" fill="#c3c2b7" text-anchor="start" font-weight="400">9.3%</text>
<path d="M150.0,248.0 h47.2 a4,4 0 0 1 4,4 v6.0 a4,4 0 0 1 -4,4 h-47.2 z" fill="#199e70"/>
<text x="207.2" y="259.0" font-size="12" fill="#c3c2b7" text-anchor="start" font-weight="400">10%</text>
<text x="138.0" y="303.5" font-size="13" fill="#c3c2b7" text-anchor="end" font-weight="400">Rank-Morton</text>
<path d="M150.0,276.0 h40.2 a4,4 0 0 1 4,4 v6.0 a4,4 0 0 1 -4,4 h-40.2 z" fill="#3987e5"/>
<text x="200.2" y="287.0" font-size="12" fill="#c3c2b7" text-anchor="start" font-weight="400">8.8%</text>
<path d="M150.0,292.0 h56.7 a4,4 0 0 1 4,4 v6.0 a4,4 0 0 1 -4,4 h-56.7 z" fill="#d95926"/>
<text x="216.7" y="303.0" font-size="12" fill="#c3c2b7" text-anchor="start" font-weight="400">12%</text>
<path d="M150.0,308.0 h79.6 a4,4 0 0 1 4,4 v6.0 a4,4 0 0 1 -4,4 h-79.6 z" fill="#199e70"/>
<text x="239.6" y="319.0" font-size="12" fill="#c3c2b7" text-anchor="start" font-weight="400">17%</text>
<text x="138.0" y="363.5" font-size="13" fill="#ffffff" text-anchor="end" font-weight="600">Rank-Hilbert</text>
<path d="M150.0,336.0 h43.0 a4,4 0 0 1 4,4 v6.0 a4,4 0 0 1 -4,4 h-43.0 z" fill="#3987e5"/>
<text x="203.0" y="347.0" font-size="12" fill="#c3c2b7" text-anchor="start" font-weight="400">9.4%</text>
<path d="M150.0,352.0 h42.8 a4,4 0 0 1 4,4 v6.0 a4,4 0 0 1 -4,4 h-42.8 z" fill="#d95926"/>
<text x="202.8" y="363.0" font-size="12" fill="#c3c2b7" text-anchor="start" font-weight="400">9.4%</text>
<path d="M150.0,368.0 h48.0 a4,4 0 0 1 4,4 v6.0 a4,4 0 0 1 -4,4 h-48.0 z" fill="#199e70"/>
<text x="208.0" y="379.0" font-size="12" fill="#c3c2b7" text-anchor="start" font-weight="400">10%</text>
</svg>
